<?xml version="1.0" standalone="no"?>
<!DOCTYPE svg PUBLIC "-//W3C//DTD SVG 20010904//EN"
 "http://www.w3.org/TR/2001/REC-SVG-20010904/DTD/svg10.dtd">
<svg version="1.0" xmlns="http://www.w3.org/2000/svg"
 width="1024.000000pt" height="1024.000000pt" viewBox="0 0 1024.000000 1024.000000"
 preserveAspectRatio="xMidYMid meet">

<g transform="translate(0.000000,1024.000000) scale(0.100000,-0.100000)"
fill="#000000" stroke="none">
<path d="M0 5120 l0 -5120 5120 0 5120 0 0 5120 0 5120 -5120 0 -5120 0 0
-5120z m4628 3148 c-6 -18 -28 -21 -28 -4 0 9 7 16 16 16 9 0 14 -5 12 -12z
m1282 -408 c0 -5 -7 -10 -15 -10 -8 0 -15 5 -15 10 0 6 7 10 15 10 8 0 15 -4
15 -10z m-1750 -105 c0 -8 -7 -15 -15 -15 -16 0 -20 12 -8 23 11 12 23 8 23
-8z m1930 -349 c0 -3 -4 -8 -10 -11 -5 -3 -10 -1 -10 4 0 6 5 11 10 11 6 0 10
-2 10 -4z m-1638 -280 c7 -8 57 -67 110 -132 161 -199 356 -437 564 -689 109
-132 281 -341 382 -465 342 -417 444 -540 448 -540 2 0 2 24 -1 53 -2 28 -6
297 -10 597 -9 901 -13 940 -91 1023 -39 41 -65 56 -148 88 -60 22 -69 39 -34
63 19 14 71 16 373 15 192 -1 361 -4 375 -8 15 -4 25 -14 25 -25 0 -21 -5 -24
-85 -59 -108 -47 -175 -135 -200 -262 -7 -41 -13 -431 -17 -1245 -4 -782 -9
-1187 -16 -1192 -18 -11 -34 2 -78 65 -113 164 -545 709 -829 1047 -25 30 -78
93 -116 140 -38 47 -106 128 -149 181 -44 53 -120 145 -170 205 -49 60 -139
167 -200 239 -60 72 -124 148 -142 169 l-31 38 1 -843 c2 -779 3 -848 20 -896
33 -98 120 -183 245 -237 28 -13 42 -25 40 -35 -3 -14 -47 -16 -388 -19 -212
-1 -395 0 -407 3 -40 10 -25 32 37 54 83 31 149 86 187 157 59 112 58 89 58
1159 l0 980 -36 76 c-40 82 -114 166 -177 198 -21 11 -63 27 -95 36 -62 18
-75 29 -57 50 16 19 29 20 332 22 212 2 270 -1 280 -11z m826 -78 c-6 -18 -28
-21 -28 -4 0 9 7 16 16 16 9 0 14 -5 12 -12z m1272 -228 c0 -5 -5 -10 -11 -10
-5 0 -7 5 -4 10 3 6 8 10 11 10 2 0 4 -4 4 -10z m-885 -250 c3 -5 1 -10 -4
-10 -6 0 -11 5 -11 10 0 6 2 10 4 10 3 0 8 -4 11 -10z m-2547 -318 c2 -7 -3
-12 -12 -12 -9 0 -16 7 -16 16 0 17 22 14 28 -4z m482 -82 c0 -5 -2 -10 -4
-10 -3 0 -8 5 -11 10 -3 6 -1 10 4 10 6 0 11 -4 11 -10z m2020 -114 c0 -3 -4
-8 -10 -11 -5 -3 -10 -1 -10 4 0 6 5 11 10 11 6 0 10 -2 10 -4z m1735 -116 c3
-5 1 -10 -4 -10 -6 0 -11 5 -11 10 0 6 2 10 4 10 3 0 8 -4 11 -10z m-177 -471
c-2 -6 -8 -10 -13 -10 -5 0 -11 4 -13 10 -2 6 4 11 13 11 9 0 15 -5 13 -11z
m-2538 -59 c0 -5 -4 -10 -10 -10 -5 0 -10 5 -10 10 0 6 5 10 10 10 6 0 10 -4
10 -10z m-1440 -45 c0 -8 -7 -15 -15 -15 -16 0 -20 12 -8 23 11 12 23 8 23 -8z
m618 -443 c2 -7 -3 -12 -12 -12 -9 0 -16 7 -16 16 0 17 22 14 28 -4z m1412
-106 c0 -11 -19 -15 -25 -6 -3 5 1 10 9 10 9 0 16 -2 16 -4z m-2110 -56 c0 -5
-4 -10 -10 -10 -5 0 -10 5 -10 10 0 6 5 10 10 10 6 0 10 -4 10 -10z m290 -600
c0 -5 -2 -10 -4 -10 -3 0 -8 5 -11 10 -3 6 -1 10 4 10 6 0 11 -4 11 -10z
m-1413 -809 l92 -1 40 -58 c69 -103 209 -271 539 -650 l23 -27 -3 305 c-4 341
-8 361 -77 407 -19 13 -30 24 -25 25 24 4 284 2 284 -2 0 -3 -14 -13 -30 -22
-64 -36 -65 -44 -68 -550 l-3 -458 -24 0 c-23 0 -196 192 -570 635 l-110 129
-3 -59 c-2 -33 -2 -175 0 -315 3 -242 4 -257 26 -297 12 -24 36 -50 53 -59 17
-8 29 -17 26 -20 -10 -10 -128 -16 -214 -9 l-93 7 38 28 c23 16 46 44 55 68
23 57 30 244 20 542 -9 244 -10 258 -34 300 -14 25 -38 50 -56 59 -40 20 -43
33 -5 27 15 -2 68 -5 119 -5z m1667 -169 c126 -59 219 -175 247 -310 19 -94 7
-219 -29 -296 -37 -78 -113 -162 -180 -199 -147 -80 -352 -74 -484 13 -226
150 -259 492 -69 693 94 99 198 139 352 134 83 -3 106 -8 163 -35z m641 30 c6
-1 -5 -11 -22 -22 -28 -17 -33 -26 -33 -57 0 -39 58 -215 150 -456 l53 -139
14 33 c42 101 174 513 176 549 1 35 -3 46 -26 66 -15 13 -27 25 -27 27 0 2 54
4 120 4 66 -1 120 -2 120 -4 0 -2 -17 -20 -39 -42 -43 -43 -49 -58 -217 -521
-58 -162 -110 -303 -115 -312 -14 -26 -65 -23 -83 5 -13 19 -170 412 -281 702
-38 98 -79 155 -111 155 -8 0 -14 3 -14 8 0 6 300 9 335 4z m1256 -104 c-1
-56 -4 -104 -6 -107 -2 -2 -12 15 -21 38 -20 50 -63 88 -107 95 -18 3 -71 7
-119 9 l-88 5 0 -171 0 -170 73 6 c86 6 142 27 152 56 3 12 11 21 16 21 11 0
6 -196 -4 -207 -3 -3 -12 8 -21 24 -18 36 -68 53 -155 53 l-61 0 0 -167 c0
-207 -2 -203 114 -203 45 1 98 7 119 14 53 19 115 64 135 98 35 59 37 25 5
-94 -9 -31 -23 -63 -32 -71 -13 -11 -68 -13 -303 -9 l-287 4 33 32 c19 17 39
49 45 71 14 52 15 636 1 687 -6 21 -24 48 -43 63 l-32 26 215 -3 c118 -2 249
-1 290 2 41 3 77 4 79 3 2 -1 3 -48 2 -105z m654 101 c137 -24 219 -94 232
-196 14 -122 -44 -207 -185 -269 -2 -1 44 -73 101 -160 107 -164 158 -221 208
-231 34 -7 39 -22 7 -24 -63 -4 -155 2 -184 11 -45 15 -129 109 -188 211 -84
142 -90 149 -141 149 -40 0 -45 -3 -51 -26 -4 -14 -4 -75 -2 -135 6 -126 24
-168 76 -184 18 -5 32 -13 32 -17 0 -4 -79 -8 -175 -8 -96 0 -175 3 -175 6 0
3 13 16 28 29 48 40 52 74 52 429 0 354 -2 368 -54 396 -14 7 -26 17 -26 22 0
12 373 10 445 -3z m599 1 l102 0 49 -67 c60 -83 319 -414 392 -501 l53 -63 0
248 c0 146 -5 264 -11 287 -10 38 -36 70 -75 92 -15 9 10 12 113 10 73 0 133
-3 133 -4 0 -2 -13 -16 -29 -31 -16 -15 -34 -45 -39 -67 -6 -21 -13 -208 -17
-414 -5 -327 -8 -375 -21 -378 -23 -5 -37 10 -283 308 -124 151 -243 292 -263
315 l-37 40 -1 -265 c0 -239 2 -269 19 -307 12 -25 32 -48 50 -58 17 -8 31
-18 31 -20 0 -3 -64 -5 -142 -5 l-143 0 34 27 c62 49 65 66 69 388 4 337 -1
378 -54 424 -19 17 -41 31 -49 31 -8 0 -15 5 -15 11 0 6 7 8 16 5 9 -3 62 -6
118 -6z m1344 -17 c279 -795 282 -801 360 -843 l37 -19 -167 -1 c-106 0 -168
4 -168 10 0 6 5 10 12 10 20 0 48 32 48 56 0 12 -18 66 -40 121 l-39 98 -137
3 c-161 3 -162 2 -195 -95 -30 -92 -28 -131 10 -165 17 -15 31 -30 31 -33 0
-3 -58 -5 -130 -5 -80 0 -130 4 -130 10 0 6 4 10 10 10 20 0 79 63 100 107 46
98 230 625 230 659 0 26 -8 43 -30 66 -16 16 -30 31 -30 34 0 2 49 4 109 4
l109 0 10 -27z"/>
<path d="M3398 3149 c-88 -25 -166 -138 -189 -273 -21 -123 7 -282 65 -375
122 -193 372 -146 441 82 69 228 6 475 -137 548 -48 24 -128 32 -180 18z"/>
<path d="M6054 3150 c-12 -5 -25 -13 -28 -18 -11 -18 -18 -192 -11 -276 8
-104 17 -113 100 -96 107 22 166 95 166 206 0 95 -47 163 -127 183 -50 13 -71
13 -100 1z"/>
<path d="M7998 2897 c-30 -84 -59 -162 -62 -174 -7 -21 -5 -22 114 -25 75 -2
120 1 120 7 0 12 -106 334 -112 340 -2 2 -29 -65 -60 -148z"/>
<path d="M8370 2527 c0 -4 7 -22 16 -39 15 -29 15 -30 -1 -24 -15 5 -16 4 -5
-9 25 -30 33 1 11 41 -11 22 -20 35 -21 31z"/>
<path d="M8320 2500 c0 -5 5 -10 11 -10 5 0 7 5 4 10 -3 6 -8 10 -11 10 -2 0
-4 -4 -4 -10z"/>
<path d="M8429 2406 c13 -14 21 -29 17 -34 -3 -5 1 -9 9 -9 10 0 11 5 5 16
-17 28 -37 51 -45 51 -5 0 2 -11 14 -24z"/>
<path d="M8350 2406 c0 -2 7 -9 15 -16 12 -10 15 -10 15 4 0 9 -7 16 -15 16
-8 0 -15 -2 -15 -4z"/>
<path d="M8390 2404 c0 -20 27 -37 36 -23 4 7 3 9 -4 5 -6 -3 -15 2 -21 11 -6
10 -11 13 -11 7z"/>
<path d="M8390 2350 c0 -5 5 -10 11 -10 5 0 7 5 4 10 -3 6 -8 10 -11 10 -2 0
-4 -4 -4 -10z"/>
</g>
</svg>
